<?xml version="1.0" standalone="no"?><!DOCTYPE svg PUBLIC "-//W3C//DTD SVG 1.1//EN" "http://www.w3.org/Graphics/SVG/1.1/DTD/svg11.dtd"><svg t="1709532949620" class="icon" viewBox="0 0 1024 1024" version="1.1" xmlns="http://www.w3.org/2000/svg" p-id="969" xmlns:xlink="http://www.w3.org/1999/xlink" width="200" height="200"><path d="M514.9696 509.44m-184.2176 0a184.2176 184.2176 0 1 0 368.4352 0 184.2176 184.2176 0 1 0-368.4352 0Z" fill="#FFBE0A" p-id="970"></path><path d="M517.376 919.2448c-227.0208 0-411.6992-184.6784-411.6992-411.6992 0-99.7376 36.096-195.9424 101.6832-270.8992 64.9216-74.24 154.2144-122.7776 251.392-136.6528a35.81952 35.81952 0 0 1 40.5504 30.4128 35.81952 35.81952 0 0 1-30.4128 40.5504c-166.1952 23.7056-291.5328 168.448-291.5328 336.5888 0 187.4944 152.5248 340.0192 340.0192 340.0192 167.7824 0 308.9408-120.0128 335.6672-285.2864a35.8144 35.8144 0 0 1 41.1136-29.6448c19.5584 3.1744 32.8192 21.5552 29.6448 41.1136-15.4112 95.488-64.512 182.9376-138.24 246.272a412.1344 412.1344 0 0 1-268.1856 99.2256z" fill="#34332E" p-id="971"></path><path d="M883.2 457.0624h-272.7424c-19.8144 0-35.84-16.0256-35.84-35.84V143.3088c0-11.0592 5.12-21.504 13.824-28.3136a35.82976 35.82976 0 0 1 30.8224-6.4512c149.0944 37.9904 263.5776 154.624 298.8032 304.4352 2.5088 10.6496 0 21.8624-6.8096 30.464a35.67104 35.67104 0 0 1-28.0576 13.6192z m-236.9024-71.68h188.5184a338.26304 338.26304 0 0 0-188.5184-192.6656v192.6656z" fill="#34332E" p-id="972"></path></svg>